# xmcd
#
# Track frame offsets:
#	150
#	11475
#	23209
#	33180
#	45962
#	64301
#	76308
#	88409
#	100806
#	112534
#	122653
#	136326
#	152412
#	163358
#	174554
#	186164
#	197701
#
# Disc length: 2771 seconds
#
# Revision: 2
# Processed by: cddbd v1.5.2PL0 Copyright (c) Steve Scherf et al.
# Submitted via: VUPlayer 2.49
#
DISCID=d20ad111
DTITLE=John Lee Hooker - This is My Song
DYEAR=2011
DGENRE=Blues
TTITLE0=Boom Boom
TTITLE1=Boogie Chillun
TTITLE2=Dimples
TTITLE3=Hobo Blues
TTITLE4=Sugar Mama
TTITLE5=Whisky and Woman
TTITLE6=Crawlin' Kingsnake
TTITLE7=I'm in the Mmood
TTITLE8=Little Wheel
TTITLE9=Maudie
TTITLE10=Every Night
TTITLE11=It Serves Me Right To Suffer
TTITLE12=No Shoes
TTITLE13=This is Hip
TTITLE14=Solid Sender
TTITLE15=Will the Circle Be Unbroken
TTITLE16=Big Legs, Tight Skirt
EXTD=
EXTT0=
EXTT1=
EXTT2=
EXTT3=
EXTT4=
EXTT5=
EXTT6=
EXTT7=
EXTT8=
EXTT9=
EXTT10=
EXTT11=
EXTT12=
EXTT13=
EXTT14=
EXTT15=
EXTT16=
PLAYORDER=
